<svg
    fill="#000000"
    xmlns="http://www.w3.org/2000/svg"
    viewBox="0 0 24 24"
    width="24px"
    height="24px">
    <path d="M21.595 2.406c-2.422-2.423-5.427-2.382-7.543-.267l-6.863 6.862c-1.785 1.785-2.144 4.428-.648 6.342l-1.685 6.514c-.353 1.368.828 2.548 2.198 2.198l6.513-1.685c1.914 1.496 4.557 1.137 6.342-.648l6.862-6.863c2.116-2.116 2.157-5.121-.266-7.543zm-10.983 15.593l-.192.05-4.526 1.17 1.187-4.556-.036-.117c-.505-1.465-.191-3.124.872-4.186.834-.833 1.902-1.17 3.04-.892l.139.036 4.548-1.187-1.187 4.549 1.607 1.607-3.442.892-.139-.037c-1.466-.504-2.726-.234-3.743.782-.684.685-.918 1.574-.668 2.431l.036.117 1.187 4.549-4.549-1.187zm7.182-6.014c-.52-.519-1.366-.564-2.126-.122-.774.482-1.663.75-2.544.75-.855 0-1.699-.25-2.431-.683l-.131-.082-1.297.336.337-1.295-.075-.132c-.45-.787-.636-1.64-.15-2.227.683-.684 1.633-.488 2.436-.037l.132.075 1.294-.338-.338 1.294.077.131c.517.903 1.324 1.595 2.309 2.047.729.334 1.561.52 2.389.52.482 0 .948-.094 1.386-.273l.139-.053 1.039.652c.528.349.608 1.075.177 1.524l-1.566 2.053-2.6-.978zm-5.794-2.605c-.763 0-1.377-.614-1.377-1.377s.614-1.377 1.377-1.377 1.377.614 1.377 1.377-.614 1.377-1.377 1.377z"/>
</svg>
